<svg width="82" height="82" viewBox="0 0 82 82" fill="none" xmlns="http://www.w3.org/2000/svg">
<g clip-path="url(#clip0_11_405)">
<path d="M12.4636 6.51722e-06H64.6839C66.5647 -0.00181163 68.4274 0.376802 70.1654 1.11418C71.9034 1.85156 73.4826 2.93322 74.8125 4.29727C76.1424 5.66131 77.1971 7.28097 77.916 9.06353C78.635 10.8461 79.0041 12.7566 79.0023 14.6856V66.1716C79.0041 68.1007 78.635 70.0112 77.916 71.7937C77.1971 73.5763 76.1424 75.1959 74.8125 76.56C73.4826 77.924 71.9034 79.0057 70.1654 79.7431C68.4274 80.4805 66.5647 80.8591 64.6839 80.8572H12.4636C10.5827 80.8591 8.72002 80.4805 6.98202 79.7431C5.24402 79.0057 3.66486 77.924 2.33492 76.56C1.00497 75.1959 -0.0496523 73.5763 -0.768595 71.7937C-1.48754 70.0112 -1.85669 68.1007 -1.85491 66.1716V14.6856C-1.85669 12.7566 -1.48754 10.8461 -0.768595 9.06353C-0.0496523 7.28097 1.00497 5.66131 2.33492 4.29727C3.66486 2.93322 5.24402 1.85156 6.98202 1.11418C8.72002 0.376802 10.5827 -0.00181163 12.4636 6.51722e-06V6.51722e-06Z" fill="#F0F0F0"/>
<path d="M38.5761 71.7535L20.3884 66.7044L16.3353 21.2448H60.8714L56.8141 66.6975L38.5761 71.7535V71.7535Z" fill="#264DE4"/>
<path d="M53.3413 63.8038L56.8084 24.9623H38.6041V67.8895L53.3413 63.8038V63.8038Z" fill="#2965F1"/>
<path d="M25.6257 41.8226L26.1253 47.398H38.6021V41.8226H25.6257ZM24.6215 30.5378L25.1283 36.1132H38.6021V30.5378H24.6215V30.5378ZM38.6021 56.3026L38.5777 56.3091L32.3683 54.6325L31.9714 50.1858H26.3744L27.1555 58.9401L38.5765 62.1104L38.6021 62.1035V56.3026Z" fill="#EBEBEB"/>
<path d="M26.8169 8.89175H33.5695V11.7157H29.6408V14.5396H33.5699V17.3634H26.8169V8.89175ZM34.9202 8.89175H41.673V11.3473H37.7442V11.8384H41.673V17.4863H34.9204V14.9077H38.8492V14.4166H34.92V8.89175H34.9202ZM43.0237 8.89175H49.7765V11.3473H45.8476V11.8384H49.7765V17.4863H43.0237V14.9077H46.9525V14.4166H43.0239V8.89175H43.0237Z" fill="black"/>
<path d="M51.545 41.8226L52.5514 30.5378H38.585V36.1132H46.4412L45.9339 41.8226H38.585V47.398H45.4505L44.8032 54.629L38.5848 56.3073V62.1078L50.0148 58.9401L50.0986 57.9981L51.409 43.3197L51.545 41.8226V41.8226Z" fill="white"/>
</g>
<defs>
<clipPath id="clip0_11_405">
<rect width="81.6471" height="81.6471" fill="white" transform="translate(0.119141)"/>
</clipPath>
</defs>
</svg>
