<svg width="82" height="82" viewBox="0 0 82 82" fill="none" xmlns="http://www.w3.org/2000/svg">
<g clip-path="url(#clip0_11_366)">
<path d="M14.985 0.499701H67.2071C69.088 0.497883 70.9507 0.87651 72.6888 1.61391C74.4268 2.35131 76.0061 3.43301 77.336 4.79711C78.666 6.1612 79.7207 7.78091 80.4397 9.56353C81.1586 11.3462 81.5278 13.2567 81.526 15.1858V66.6736C81.5278 68.6027 81.1586 70.5132 80.4397 72.2959C79.7207 74.0785 78.666 75.6982 77.336 77.0623C76.0061 78.4264 74.4268 79.5081 72.6888 80.2455C70.9507 80.9829 69.088 81.3615 67.2071 81.3597H14.985C13.1041 81.3615 11.2413 80.9829 9.50326 80.2455C7.7652 79.5081 6.18599 78.4264 4.85599 77.0623C3.526 75.6982 2.47134 74.0785 1.75238 72.2959C1.03341 70.5132 0.664249 68.6027 0.666022 66.6736V15.1858C0.664249 13.2567 1.03341 11.3462 1.75238 9.56353C2.47134 7.78091 3.526 6.1612 4.85599 4.79711C6.18599 3.43301 7.7652 2.35131 9.50326 1.61391C11.2413 0.87651 13.1041 0.497883 14.985 0.499701V0.499701Z" fill="#000B1D"/>
<path d="M33.3586 65.5921C38.0104 65.5921 41.7815 61.821 41.7815 57.1692V48.7463H33.3586C28.7067 48.7463 24.9357 52.5173 24.9357 57.1692C24.9357 61.821 28.7067 65.5921 33.3586 65.5921Z" fill="#0ACF83"/>
<path d="M24.9357 40.3231C24.9357 35.6713 28.7067 31.9002 33.3586 31.9002H41.7815V48.746H33.3586C28.7067 48.746 24.9357 44.975 24.9357 40.3231Z" fill="#A259FF"/>
<path d="M24.9354 23.4773C24.9354 18.8255 28.7065 15.0544 33.3583 15.0544H41.7813V31.9002H33.3583C28.7065 31.9002 24.9354 28.1292 24.9354 23.4773Z" fill="#F24E1E"/>
<path d="M41.7736 15.0542H50.1965C54.8483 15.0542 58.6194 18.8252 58.6194 23.4771C58.6194 28.1289 54.8483 31.9 50.1965 31.9H41.7736V15.0542Z" fill="#FF7262"/>
<path d="M58.6194 40.3242C58.6194 44.976 54.8483 48.7471 50.1965 48.7471C45.5446 48.7471 41.7736 44.976 41.7736 40.3242C41.7736 35.6723 45.5446 31.9012 50.1965 31.9012C54.8483 31.9012 58.6194 35.6723 58.6194 40.3242Z" fill="#1ABCFE"/>
</g>
<defs>
<clipPath id="clip0_11_366">
<rect width="80.86" height="80.86" fill="white" transform="translate(0.666016 0.5)"/>
</clipPath>
</defs>
</svg>
