<svg width="82" height="81" viewBox="0 0 82 81" fill="none" xmlns="http://www.w3.org/2000/svg">
<path d="M14.6047 0.143134H66.825C68.7059 0.141316 70.5686 0.519929 72.3066 1.25731C74.0446 1.99468 75.6237 3.07635 76.9537 4.44039C78.2836 5.80444 79.3382 7.42409 80.0572 9.20665C80.7761 10.9892 81.1453 12.8997 81.1435 14.8287V66.3148C81.1453 68.2438 80.7761 70.1543 80.0572 71.9369C79.3382 73.7194 78.2836 75.3391 76.9537 76.7031C75.6237 78.0672 74.0446 79.1488 72.3066 79.8862C70.5686 80.6236 68.7059 81.0022 66.825 81.0004H14.6047C12.7239 81.0022 10.8612 80.6236 9.12319 79.8862C7.3852 79.1488 5.80604 78.0672 4.47609 76.7031C3.14614 75.3391 2.09152 73.7194 1.37258 71.9369C0.653637 70.1543 0.284489 68.2438 0.286261 66.3148V14.8287C0.284489 12.8997 0.653637 10.9892 1.37258 9.20665C2.09152 7.42409 3.14614 5.80444 4.47609 4.44039C5.80604 3.07635 7.3852 1.99468 9.12319 1.25731C10.8612 0.519929 12.7239 0.141316 14.6047 0.143134V0.143134Z" fill="#F0F0F0"/>
<path d="M69.8922 37.8719L43.4133 11.3952C41.8898 9.87021 39.4168 9.87021 37.8913 11.3952L32.3933 16.894L39.3674 23.8684C40.9887 23.3209 42.847 23.688 44.1388 24.98C45.4373 26.2802 45.8017 28.1544 45.2405 29.7812L51.9623 36.5033C53.5885 35.9429 55.4648 36.3049 56.7633 37.6058C58.5788 39.4208 58.5788 42.3618 56.7633 44.1772C54.9476 45.9933 52.0068 45.9933 50.19 44.1772C48.825 42.8111 48.4873 40.8053 49.1787 39.1233L42.9099 32.8543L42.9094 49.3512C43.352 49.5703 43.7697 49.8628 44.1385 50.23C45.9534 52.0448 45.9534 54.9852 44.1385 56.803C42.3231 58.6177 39.3809 58.6177 37.5674 56.803C35.7522 54.9854 35.7522 52.0449 37.5674 50.23C38.016 49.7822 38.535 49.4433 39.0889 49.2161V32.5658C38.5348 32.3396 38.0163 32.0032 37.567 31.5518C36.1921 30.1779 35.861 28.1599 36.5661 26.4714L29.691 19.595L11.5367 37.7496C10.0113 39.2757 10.0113 41.7488 11.5367 43.2739L38.014 69.7507C39.5383 71.2756 42.0105 71.2756 43.537 69.7507L69.8919 43.399C71.4168 41.8733 71.4168 39.3994 69.8919 37.8741" fill="#F05133"/>
</svg>
