<svg width="82" height="82" viewBox="0 0 82 82" fill="none" xmlns="http://www.w3.org/2000/svg">
<g clip-path="url(#clip0_11_390)">
<path d="M13.3881 6.51722e-06H65.6084C67.4892 -0.00181163 69.352 0.376802 71.09 1.11418C72.828 1.85156 74.4071 2.93322 75.7371 4.29727C77.067 5.66131 78.1216 7.28097 78.8406 9.06353C79.5595 10.8461 79.9287 12.7566 79.9269 14.6856V66.1716C79.9287 68.1007 79.5595 70.0112 78.8406 71.7937C78.1216 73.5763 77.067 75.1959 75.7371 76.56C74.4071 77.924 72.828 79.0057 71.09 79.7431C69.352 80.4805 67.4892 80.8591 65.6084 80.8572H13.3881C11.5073 80.8591 9.64458 80.4805 7.90658 79.7431C6.16858 79.0057 4.58942 77.924 3.25948 76.56C1.92953 75.1959 0.874908 73.5763 0.155966 71.7937C-0.562977 70.0112 -0.932125 68.1007 -0.930353 66.1716V14.6856C-0.932125 12.7566 -0.562977 10.8461 0.155966 9.06353C0.874908 7.28097 1.92953 5.66131 3.25948 4.29727C4.58942 2.93322 6.16858 1.85156 7.90658 1.11418C9.64458 0.376802 11.5073 -0.00181163 13.3881 6.51722e-06V6.51722e-06Z" fill="#F0F0F0"/>
<path d="M61.7671 21.2448L57.7097 66.6986L39.4713 71.7548L21.2831 66.7055L17.2299 21.2448H61.7671Z" fill="#E44D26"/>
<path d="M39.4987 67.8905L54.2363 63.8048L57.7035 24.9623H39.4987V67.8905Z" fill="#F16529"/>
<path d="M31.6095 36.1153H39.4971V30.5397H25.5161L25.6495 32.0355L27.02 47.4004H39.4971V41.8248H32.1191L31.6095 36.1153V36.1153ZM32.8661 50.1883H27.2691L28.0502 58.9428L39.4714 62.1132L39.4971 62.1062V56.3052L39.4726 56.3117L33.2631 54.635L32.8661 50.1883V50.1883Z" fill="#EBEBEB"/>
<path d="M21.373 8.89175H24.2064V11.6912H26.7984V8.89175H29.632V17.369H26.7986V14.5304H24.2066V17.369H21.3732V8.89175H21.373ZM33.3579 11.703H30.8639V8.89175H38.6875V11.703H36.1919V17.369H33.3585V11.703H33.3583H33.3579ZM39.9292 8.89175H42.8836L44.701 11.8704L46.5166 8.89175H49.4723V17.369H46.6503V13.1672L44.701 16.1814H44.6521L42.7015 13.1672V17.369H39.9292V8.89175ZM50.8824 8.89175H53.7167V14.567H57.7013V17.369H50.8822V8.89175H50.8824Z" fill="black"/>
<path d="M39.4795 47.4004H46.3453L45.6979 54.6315L39.4794 56.3099V62.1105L50.9097 58.9428L50.9935 58.0007L52.3039 43.322L52.4399 41.8248H39.4795V47.4004ZM39.4795 36.1017V36.1153H52.9472L53.0589 34.8622L53.3131 32.0355L53.4463 30.5397H39.4795V36.1019V36.1017Z" fill="white"/>
</g>
<defs>
<clipPath id="clip0_11_390">
<rect width="81.6471" height="81.6471" fill="white" transform="translate(0.0585938)"/>
</clipPath>
</defs>
</svg>
