<svg width="82" height="81" viewBox="0 0 82 81" fill="none" xmlns="http://www.w3.org/2000/svg">
<path d="M14.6763 0.143134H66.8966C68.7774 0.141316 70.6401 0.519929 72.3781 1.25731C74.1161 1.99468 75.6953 3.07635 77.0252 4.44039C78.3552 5.80444 79.4098 7.42409 80.1288 9.20665C80.8477 10.9892 81.2168 12.8997 81.2151 14.8287V66.3148C81.2168 68.2438 80.8477 70.1543 80.1288 71.9369C79.4098 73.7194 78.3552 75.3391 77.0252 76.7031C75.6953 78.0672 74.1161 79.1488 72.3781 79.8862C70.6401 80.6236 68.7774 81.0022 66.8966 81.0004H14.6763C12.7955 81.0022 10.9328 80.6236 9.19476 79.8862C7.45676 79.1488 5.8776 78.0672 4.54765 76.7031C3.21771 75.3391 2.16309 73.7194 1.44414 71.9369C0.725201 70.1543 0.356052 68.2438 0.357825 66.3148V14.8287C0.356052 12.8997 0.725201 10.9892 1.44414 9.20665C2.16309 7.42409 3.21771 5.80444 4.54765 4.44039C5.8776 3.07635 7.45676 1.99468 9.19476 1.25731C10.9328 0.519929 12.7955 0.141316 14.6763 0.143134V0.143134Z" fill="#F0F0F0"/>
<path d="M40.6086 70.891C39.7965 70.891 38.9899 70.678 38.278 70.268L30.8594 65.876C29.7514 65.2563 30.2921 65.0372 30.6575 64.9109C32.1349 64.3936 32.4347 64.2768 34.0116 63.3812C34.1774 63.2867 34.3943 63.3201 34.564 63.4202L40.2632 66.8021C40.469 66.9134 40.761 66.9134 40.9518 66.8021L63.1735 53.9753C63.3793 53.8585 63.5128 53.6193 63.5128 53.3745V27.732C63.5128 27.4761 63.3793 27.2481 63.169 27.1201L40.9562 14.3044C40.7504 14.1821 40.4779 14.1821 40.2721 14.3044L18.0637 27.1201C17.8485 27.2425 17.7116 27.4817 17.7116 27.7264V53.369C17.7116 53.6137 17.8451 53.8473 18.0565 53.9642L24.1417 57.4796C27.4458 59.1316 29.4649 57.1848 29.4649 55.2268V29.918C29.4649 29.5565 29.7486 29.2783 30.1102 29.2783H32.9247C33.2752 29.2783 33.5644 29.5565 33.5644 29.918V55.2379C33.5644 59.6433 31.1615 62.1742 26.9841 62.1742C25.6992 62.1742 24.6869 62.1742 21.8612 60.7836L16.0318 57.4239C14.5912 56.5896 13.7012 55.0321 13.7012 53.369V27.7264C13.7012 26.0577 14.5912 24.5003 16.0318 23.677L38.2757 10.8446C39.683 10.0492 41.552 10.0492 42.9481 10.8446L65.1643 23.6826C66.5993 24.5114 67.4949 26.0633 67.4949 27.732V53.3745C67.4949 55.0377 66.5993 56.5896 65.1643 57.4239L42.9481 70.2563C42.2361 70.668 41.4296 70.8793 40.6064 70.8793" fill="#689F63"/>
<path d="M47.4744 53.2213C37.7514 53.2213 35.7128 48.7581 35.7128 45.0146C35.7128 44.6586 35.9998 44.3749 36.3563 44.3749H39.2265C39.5436 44.3749 39.8106 44.6058 39.8606 44.9189C40.2945 47.8436 41.585 49.3188 47.4644 49.3188C52.1479 49.3188 54.1392 48.2608 54.1392 45.7772C54.1392 44.3477 53.5719 43.2852 46.2963 42.5733C40.2111 41.9725 36.4509 40.632 36.4509 35.7649C36.4509 31.2816 40.2333 28.6117 46.5689 28.6117C53.6831 28.6117 57.2097 31.0814 57.6547 36.3879C57.6714 36.5715 57.6046 36.7495 57.4822 36.883C57.3599 37.0109 57.1874 37.0888 57.0094 37.0888H54.1226C53.8222 37.0888 53.5608 36.8774 53.4996 36.5881C52.8043 33.5122 51.1244 32.5276 46.5577 32.5276C41.4459 32.5276 40.8507 34.3076 40.8507 35.6425C40.8507 37.2612 41.5516 37.734 48.4489 38.6462C55.2795 39.5529 58.5224 40.8322 58.5224 45.6326C58.5224 50.4718 54.4841 53.2475 47.4421 53.2475L47.4744 53.2213Z" fill="#689F63"/>
</svg>
