<svg width="81" height="81" viewBox="0 0 81 81" fill="none" xmlns="http://www.w3.org/2000/svg">
<g clip-path="url(#clip0_11_424)">
<path d="M14.3185 0.0705937H66.5388C68.4196 0.0687755 70.2823 0.447389 72.0203 1.18477C73.7583 1.92214 75.3375 3.00381 76.6674 4.36785C77.9974 5.7319 79.052 7.35155 79.7709 9.13411C80.4899 10.9167 80.859 12.8272 80.8572 14.7562V66.2422C80.859 68.1713 80.4899 70.0818 79.7709 71.8643C79.052 73.6469 77.9974 75.2665 76.6674 76.6306C75.3375 77.9946 73.7583 79.0763 72.0203 79.8137C70.2823 80.551 68.4196 80.9297 66.5388 80.9278H14.3185C12.4376 80.9297 10.5749 80.551 8.83694 79.8137C7.09894 79.0763 5.51978 77.9946 4.18984 76.6306C2.85989 75.2665 1.80527 73.6469 1.08632 71.8643C0.367382 70.0818 -0.00176634 68.1713 6.35429e-06 66.2422V14.7562C-0.00176634 12.8272 0.367382 10.9167 1.08632 9.13411C1.80527 7.35155 2.85989 5.7319 4.18984 4.36785C5.51978 3.00381 7.09894 1.92214 8.83694 1.18477C10.5749 0.447389 12.4376 0.0687755 14.3185 0.0705937V0.0705937Z" fill="#000B1D"/>
<g clip-path="url(#clip1_11_424)">
<path d="M40.427 45.8486C43.5316 45.8486 46.0483 43.3644 46.0483 40.3C46.0483 37.2356 43.5316 34.7514 40.427 34.7514C37.3224 34.7514 34.8057 37.2356 34.8057 40.3C34.8057 43.3644 37.3224 45.8486 40.427 45.8486Z" fill="#61DAFB"/>
<path fill-rule="evenodd" clip-rule="evenodd" d="M13.5159 36.8364C12.152 38.0517 11.579 39.2239 11.579 40.2986C11.579 41.3734 12.152 42.5455 13.5159 43.7608C14.8797 44.976 16.9269 46.1298 19.5684 47.1253C24.8424 49.113 32.2172 50.3696 40.4284 50.3696C48.6396 50.3696 56.0143 49.113 61.2883 47.1253C63.9299 46.1298 65.9771 44.976 67.3408 43.7608C68.7047 42.5455 69.2777 41.3734 69.2777 40.2986C69.2777 39.2239 68.7047 38.0517 67.3408 36.8364C65.9771 35.6213 63.9299 34.4675 61.2883 33.4719C56.0143 31.4843 48.6396 30.2277 40.4284 30.2277C32.2172 30.2277 24.8424 31.4843 19.5684 33.4719C16.9269 34.4675 14.8797 35.6213 13.5159 36.8364ZM18.631 31.0487C24.274 28.922 31.9809 27.6338 40.4284 27.6338C48.8759 27.6338 56.5828 28.922 62.2257 31.0487C65.0426 32.1104 67.4128 33.4061 69.1017 34.911C70.7905 36.4158 71.9056 38.2342 71.9056 40.2986C71.9056 42.363 70.7905 44.1814 69.1017 45.6862C67.4128 47.1911 65.0426 48.4869 62.2257 49.5485C56.5828 51.6752 48.8759 52.9634 40.4284 52.9634C31.9809 52.9634 24.274 51.6752 18.631 49.5485C15.8141 48.4869 13.444 47.1911 11.755 45.6862C10.0663 44.1814 8.95117 42.363 8.95117 40.2986C8.95117 38.2342 10.0663 36.4158 11.755 34.911C13.444 33.4061 15.8141 32.1104 18.631 31.0487Z" fill="#61DAFB"/>
<path fill-rule="evenodd" clip-rule="evenodd" d="M30.0105 15.5627C28.2622 15.0045 26.9473 15.1007 26.0044 15.6381C25.0614 16.1755 24.3195 17.2513 23.9352 19.0249C23.5509 20.7983 23.5622 23.1251 24.0095 25.8809C24.9026 31.3831 27.4874 38.3155 31.593 45.3346C35.6986 52.3537 40.4885 58.0295 44.8694 61.544C47.0637 63.3043 49.0996 64.4773 50.8476 65.0355C52.5958 65.5938 53.9107 65.4975 54.8537 64.9601C55.7967 64.4227 56.5386 63.3469 56.9229 61.5733C57.3072 59.8 57.2959 57.4731 56.8486 54.7173C55.9555 49.2151 53.3706 42.2827 49.265 35.2636C45.1594 28.2445 40.3696 22.5688 35.9886 19.0542C33.7944 17.294 31.7585 16.1209 30.0105 15.5627ZM37.646 17.0413C42.3334 20.8017 47.3171 26.7456 51.5408 33.9667C55.7646 41.1878 58.4878 48.4199 59.4434 54.307C59.9204 57.2458 59.9685 59.9197 59.4926 62.1159C59.0168 64.3119 57.9789 66.1743 56.1676 67.2065C54.3564 68.2387 52.2034 68.1947 50.0387 67.5034C47.8739 66.8122 45.552 65.434 43.212 63.5569C38.5247 59.7965 33.541 53.8526 29.3172 46.6315C25.0935 39.4104 22.3703 32.1783 21.4147 26.2913C20.9377 23.3525 20.8895 20.6785 21.3654 18.4824C21.8413 16.2864 22.8792 14.424 24.6904 13.3918C26.5017 12.3596 28.6547 12.4036 30.8193 13.0948C32.9841 13.786 35.3061 15.1642 37.646 17.0413Z" fill="#61DAFB"/>
<path fill-rule="evenodd" clip-rule="evenodd" d="M56.9234 19.0235C56.5391 17.25 55.7972 16.1741 54.8542 15.6367C53.9113 15.0994 52.5964 15.0031 50.8481 15.5613C49.1001 16.1195 47.0642 17.2926 44.87 19.0529C40.489 22.5674 35.6991 28.2432 31.5935 35.2623C27.4879 42.2814 24.9031 49.2137 24.01 54.7159C23.5627 57.4717 23.5514 59.7986 23.9357 61.5719C24.32 63.3455 25.0619 64.4214 26.0049 64.9587C26.9479 65.4961 28.2628 65.5924 30.011 65.0341C31.759 64.4759 33.7949 63.3029 35.9892 61.5426C40.3701 58.0281 45.16 52.3523 49.2656 45.3332C53.3712 38.3141 55.956 31.3817 56.8491 25.8795C57.2964 23.1237 57.3077 20.7969 56.9234 19.0235ZM59.4439 26.2899C58.4883 32.1769 55.7651 39.409 51.5414 46.6301C47.3176 53.8512 42.3339 59.7951 37.6466 63.5555C35.3066 65.4327 32.9847 66.8108 30.8198 67.5021C28.6552 68.1933 26.5022 68.2373 24.691 67.2051C22.8797 66.1729 21.8418 64.3105 21.366 62.1145C20.8901 59.9183 20.9382 57.2444 21.4152 54.3056C22.3708 48.4185 25.094 41.1864 29.3178 33.9653C33.5415 26.7442 38.5252 20.8003 43.2126 17.04C45.5525 15.1628 47.8745 13.7847 50.0393 13.0934C52.2039 12.4022 54.3569 12.3582 56.1682 13.3904C57.9794 14.4226 59.0173 16.285 59.4932 18.481C59.9691 20.6771 59.9209 23.3511 59.4439 26.2899Z" fill="#61DAFB"/>
</g>
</g>
<defs>
<clipPath id="clip0_11_424">
<rect width="80.8573" height="80.8573" fill="white" transform="translate(0 0.0703125)"/>
</clipPath>
<clipPath id="clip1_11_424">
<rect width="63.0687" height="55.3872" fill="white" transform="translate(8.89362 12.6054)"/>
</clipPath>
</defs>
</svg>
