<svg width="81" height="81" viewBox="0 0 81 81" fill="none" xmlns="http://www.w3.org/2000/svg">
<path d="M14.3185 6.51722e-06H66.5388C68.4196 -0.00181163 70.2823 0.376802 72.0203 1.11418C73.7583 1.85156 75.3375 2.93322 76.6674 4.29727C77.9974 5.66131 79.052 7.28097 79.7709 9.06353C80.4899 10.8461 80.859 12.7566 80.8572 14.6856V66.1716C80.859 68.1007 80.4899 70.0112 79.7709 71.7937C79.052 73.5763 77.9974 75.1959 76.6674 76.56C75.3375 77.924 73.7583 79.0057 72.0203 79.7431C70.2823 80.4805 68.4196 80.8591 66.5388 80.8572H14.3185C12.4376 80.8591 10.5749 80.4805 8.83694 79.7431C7.09894 79.0057 5.51978 77.924 4.18984 76.56C2.85989 75.1959 1.80527 73.5763 1.08632 71.7937C0.367382 70.0112 -0.00176634 68.1007 6.35429e-06 66.1716V14.6856C-0.00176634 12.7566 0.367382 10.8461 1.08632 9.06353C1.80527 7.28097 2.85989 5.66131 4.18984 4.29727C5.51978 2.93322 7.09894 1.85156 8.83694 1.11418C10.5749 0.376802 12.4376 -0.00181163 14.3185 6.51722e-06V6.51722e-06Z" fill="#F7DF1E"/>
</svg>
